<?xml version="1.0" encoding="utf-8"?>
<!-- Generator: Adobe Illustrator 16.0.3, SVG Export Plug-In . SVG Version: 6.00 Build 0)  -->
<!DOCTYPE svg PUBLIC "-//W3C//DTD SVG 1.1//EN" "http://www.w3.org/Graphics/SVG/1.1/DTD/svg11.dtd">
<svg version="1.1" id="Layer_1" xmlns="http://www.w3.org/2000/svg" xmlns:xlink="http://www.w3.org/1999/xlink" x="0px" y="0px"
	 width="135px" height="135px" viewBox="0 0 135 135" enable-background="new 0 0 135 135" xml:space="preserve">
<rect fill="#F06424" width="135" height="135"/>
<g>
	<path fill="#FFFFFF" d="M51.456,68.5h-8.047l-0.352-2.694c0.327-0.442,0.967-0.84,1.925-1.19v-7.25l-5.29-6.677l-0.588,0.071
		c-0.501-0.435-0.906-1.23-1.225-2.357l-0.183-0.231H32.35v6.369h4.863c0.279-0.701,0.571-1.19,0.875-1.471l2.204,0.245v6.228
		l-2.204,0.28c-0.304-0.232-0.596-0.723-0.875-1.47H32.35v5.81c1.563,0.35,2.694,0.827,3.394,1.434l-0.35,2.904h-9.658l-0.35-2.904
		c0.304-0.396,0.945-0.78,1.925-1.154v-15.99c-0.956-0.351-1.597-0.747-1.925-1.191l0.35-2.902h8.938l-6.682-8.432l-21.6,11.137
		l42.221,62.11l19.504-22.618L51.787,65.95L51.456,68.5z"/>
	<path fill="#FFFFFF" d="M51.339,65.384l-1.457-1.837v1.068C50.491,64.85,50.97,65.107,51.339,65.384z"/>
	<path fill="#FFFFFF" d="M102.611,59.578c0-1.983-0.193-3.33-0.578-4.042c-0.385-0.712-1.057-1.067-2.012-1.067
		c-1.446,0-2.638,0.385-3.569,1.155v8.991c1.003,0.397,1.937,0.596,2.8,0.596C101.492,65.211,102.611,63.334,102.611,59.578z"/>
	<path fill="#FFFFFF" d="M79.797,27.825l-12.296,9.113l13.337,14.398l0.044-0.333c1.306-0.302,2.519-0.454,3.64-0.454
		c1.119,0,2.064,0.035,2.834,0.105v7.718l4.199,4.533V47.541c-0.818-0.281-1.459-0.676-1.926-1.19l0.352-2.694
		c1.307-0.303,2.52-0.455,3.639-0.455s2.064,0.036,2.834,0.106v8.747c0.49-0.351,1.145-0.659,1.96-0.928
		c0.815-0.268,1.599-0.402,2.345-0.402c2.542,0,4.326,0.654,5.354,1.961c1.025,1.306,1.539,3.533,1.539,6.683
		c0,1.749-0.238,3.261-0.717,4.53c-0.479,1.271-1.127,2.245-1.941,2.922c-1.539,1.308-3.359,1.96-5.459,1.96
		c-1.012,0-2.01-0.18-2.999-0.502l4.735,5.115l27.342-23.246L79.797,27.825z"/>
	<path opacity="0.5" fill="#FFFFFF" enable-background="new    " d="M37.697,48.171l0.183,0.231c-0.022-0.08-0.049-0.148-0.07-0.231
		H37.697z"/>
	<path opacity="0.5" fill="#FFFFFF" enable-background="new    " d="M61.41,54.294c-0.922,0-1.627,0.28-2.117,0.84
		c-0.489,0.56-0.817,1.505-0.979,2.835l5.528-0.211c0.047-0.326,0.07-0.723,0.07-1.189c0-0.466-0.188-0.962-0.561-1.487
		C62.979,54.557,62.332,54.294,61.41,54.294z"/>
	<path opacity="0.5" fill="#FFFFFF" enable-background="new    " d="M94.844,67.591C94.4,68.197,93.887,68.5,93.303,68.5h-1.748
		v-5.594l-4.199-4.533v5.928c0.816,0.164,1.457,0.362,1.926,0.595v2.765c-1.399,0.747-3.162,1.12-5.284,1.12
		c-0.584-0.422-0.897-1.003-0.944-1.75c-1.609,1.167-3.506,1.75-5.688,1.75c-2.18,0-3.703-0.456-4.565-1.364
		c-0.864-0.911-1.294-2.392-1.294-4.444V54.89c-0.816-0.28-1.459-0.677-1.926-1.189l0.352-2.695c1.307-0.302,2.52-0.454,3.639-0.454
		s2.064,0.035,2.834,0.104v11.161c0,1.261,0.193,2.095,0.578,2.502c0.384,0.408,1.147,0.613,2.291,0.613s2.205-0.373,3.185-1.12
		V54.89c-0.815-0.28-1.459-0.677-1.925-1.189l0.307-2.362L67.501,36.938l-39.508-1.013l6.682,8.432h7.019v6.087l-2.001,0.244
		l5.29,6.677v-9.824c-0.816-0.281-1.458-0.676-1.925-1.19l0.352-2.694c1.306-0.303,2.519-0.455,3.638-0.455
		c1.119,0,2.064,0.036,2.835,0.106v20.239l1.457,1.837c0.181,0.137,0.344,0.276,0.467,0.422l-0.019,0.145l16.329,20.605
		l33.152-13.162l-4.736-5.115C95.966,68.096,95.402,67.879,94.844,67.591z M65.87,60.871h-7.592
		c0.093,1.471,0.473,2.508,1.137,3.115c0.665,0.607,1.721,0.909,3.168,0.909c0.792,0,1.55-0.093,2.273-0.28
		c0.723-0.186,1.248-0.372,1.575-0.56l0.489-0.279l1.05,2.8c-0.14,0.163-0.344,0.366-0.612,0.612
		c-0.269,0.244-0.945,0.571-2.029,0.979c-1.085,0.407-2.316,0.612-3.691,0.612c-2.8,0-4.904-0.748-6.315-2.24
		c-1.413-1.492-2.117-3.662-2.117-6.508c0-1.726,0.245-3.213,0.735-4.462c0.49-1.247,1.154-2.209,1.993-2.885
		c1.633-1.307,3.534-1.961,5.704-1.961c2.17,0,3.832,0.555,4.986,1.663c1.154,1.106,1.731,3.096,1.731,5.965
		C68.355,60.032,67.527,60.871,65.87,60.871z"/>
	<path fill="#FFFFFF" d="M39.104,50.76l0.588-0.071l-1.813-2.286C38.198,49.529,38.604,50.325,39.104,50.76z"/>
	<path fill="#FFFFFF" d="M51.806,65.806c-0.123-0.146-0.286-0.285-0.467-0.422l0.448,0.566L51.806,65.806z"/>
</g>
</svg>
